<svg xmlns="http://www.w3.org/2000/svg" fill="none" viewBox="0 0 14 21"><path fill="#596273" d="M11.702 4.902v-.78a2.1 2.1 0 001.57-2.027A2.1 2.1 0 0011.17 0H2.829a2.1 2.1 0 00-2.1 2.095 2.1 2.1 0 001.569 2.028v.779A2.593 2.593 0 000 7.477V18.41A2.592 2.592 0 002.586 21h8.828A2.592 2.592 0 0014 18.409V7.477a2.593 2.593 0 00-2.298-2.575zM1.228 9.816h11.544v6.25H1.228v-6.25zm9.246-5.626v.696H3.526V4.19h6.948zM1.956 2.095a.87.87 0 01.873-.865h8.342a.87.87 0 01.872.865.87.87 0 01-.872.865H2.829a.87.87 0 01-.873-.865zm.63 4.022h8.828c.749 0 1.358.61 1.358 1.36v1.108H1.228V7.477c0-.75.61-1.36 1.358-1.36zm8.828 13.652H2.586a1.36 1.36 0 01-1.358-1.36v-1.112h11.544v1.112c0 .75-.61 1.36-1.358 1.36z"/></svg>